<svg width="128" height="128" viewBox="0 0 128 128" fill="none" xmlns="http://www.w3.org/2000/svg">
<style>
  path {
    fill: #444;
  }

  @media (prefers-color-scheme: dark) {
    path {
      fill: #ddd;
    }
  }
</style>
<path d="M64.0838 53.7571H54.9986C54.6491 51.8158 53.9988 50.1075 53.0476 48.6321C52.0964 47.1567 50.9316 45.9046 49.5533 44.8757C48.175 43.8468 46.6316 43.0703 44.9233 42.5462C43.2344 42.022 41.4387 41.7599 39.5362 41.7599C36.1001 41.7599 33.0232 42.6238 30.3054 44.3516C27.607 46.0793 25.4716 48.6127 23.8991 51.9517C22.3461 55.2907 21.5696 59.3674 21.5696 64.1818C21.5696 69.035 22.3461 73.1312 23.8991 76.4702C25.4716 79.8092 27.6167 82.3329 30.3345 84.0412C33.0523 85.7495 36.1099 86.6037 39.5071 86.6037C41.3902 86.6037 43.1761 86.3513 44.8651 85.8466C46.5734 85.3224 48.1167 84.5556 49.495 83.5462C50.8733 82.5367 52.0381 81.304 52.9893 79.848C53.96 78.3726 54.6297 76.6837 54.9986 74.7812L64.0838 74.8104C63.5985 77.7417 62.657 80.4401 61.2592 82.9055C59.8809 85.3516 58.1046 87.4676 55.9304 89.2536C53.7756 91.0201 51.3101 92.3887 48.5341 93.3594C45.758 94.33 42.7296 94.8153 39.4489 94.8153C34.285 94.8153 29.6842 93.5923 25.6463 91.1463C21.6084 88.6809 18.4247 85.1574 16.0952 80.576C13.785 75.9946 12.63 70.5298 12.63 64.1818C12.63 57.8144 13.7947 52.3497 16.1243 47.7876C18.4538 43.2062 21.6375 39.6925 25.6754 37.2464C29.7133 34.781 34.3045 33.5483 39.4489 33.5483C42.6132 33.5483 45.5639 34.0045 48.3011 34.9169C51.0578 35.8099 53.5329 37.13 55.7266 38.8771C57.9202 40.6049 59.7353 42.7209 61.1719 45.2251C62.6084 47.71 63.5791 50.554 64.0838 53.7571ZM74.8507 94V34.3636H96.1078C100.747 34.3636 104.591 35.2081 107.639 36.897C110.687 38.5859 112.968 40.8961 114.482 43.8274C115.996 46.7393 116.753 50.0201 116.753 53.6697C116.753 57.3388 115.987 60.639 114.453 63.5703C112.939 66.4822 110.648 68.7924 107.581 70.5007C104.533 72.1896 100.699 73.0341 96.0787 73.0341H81.4608V65.4048H95.2633C98.1947 65.4048 100.573 64.9001 102.398 63.8906C104.222 62.8617 105.562 61.464 106.416 59.6974C107.27 57.9309 107.697 55.9216 107.697 53.6697C107.697 51.4179 107.27 49.4183 106.416 47.6712C105.562 45.924 104.213 44.5554 102.368 43.5653C100.544 42.5753 98.1364 42.0803 95.1468 42.0803H83.8485V94H74.8507Z" fill="currentColor"/>
</svg>
