<?xml version="1.0" standalone="no"?>
<!DOCTYPE svg PUBLIC "-//W3C//DTD SVG 20010904//EN"
 "http://www.w3.org/TR/2001/REC-SVG-20010904/DTD/svg10.dtd">
<svg version="1.0" xmlns="http://www.w3.org/2000/svg"
 width="260.000000pt" height="260.000000pt" viewBox="0 0 260.000000 260.000000"
 preserveAspectRatio="xMidYMid meet">
<metadata>
Created by potrace 1.14, written by Peter Selinger 2001-2017
</metadata>
<g transform="translate(0.000000,260.000000) scale(0.100000,-0.100000)"
fill="#000000" stroke="none">
<path d="M644 1959 c-205 -27 -383 -182 -448 -389 -36 -113 -44 -169 -41 -298
6 -338 179 -579 459 -636 65 -14 196 -14 259 -1 146 30 293 141 355 268 29 61
57 145 50 153 -4 3 -156 7 -184 5 -5 -1 -19 -25 -29 -54 -71 -197 -361 -267
-545 -132 -74 54 -129 145 -155 257 -22 93 -14 293 15 378 61 180 202 282 381
275 148 -6 271 -95 309 -222 l12 -39 99 -1 98 0 -5 36 c-14 86 -78 199 -152
268 -114 107 -297 157 -478 132z"/>
<path d="M1519 1933 c-1 -24 -1 -1253 0 -1275 1 -16 13 -18 99 -18 l97 0 0
230 0 230 167 0 c93 0 170 0 173 1 260 45 389 198 379 447 -8 205 -119 341
-315 386 -45 11 -135 15 -330 16 -251 1 -269 -1 -270 -17z m586 -181 c85 -39
123 -101 130 -209 8 -129 -50 -226 -155 -257 -52 -16 -345 -25 -358 -11 -4 3
-7 119 -7 257 l0 250 170 -4 c152 -3 175 -6 220 -26z"/>
</g>
</svg>
